name processed_emg_signals												
nRows=96												
nColumns=7												
 												
endheader												
time	RGLTMED	RRF	RADDLONG	RST	RTA	RGM						
1.327	0.04017374	0.048370236	0.06796602	0.133570185	0.319848225	0.053954146						
1.328	0.039990134	0.048455608	0.067854233	0.139926994	0.316969067	0.053752542						
1.329	0.039802477	0.048532698	0.067744443	0.146407538	0.314155202	0.053559135						
1.33	0.0396108	0.048601389	0.06763668	0.153009253	0.311408455	0.05337409						
1.331	0.039415147	0.048661573	0.067530967	0.159729413	0.308730666	0.053197563						
1.332	0.03921557	0.048713155	0.067427319	0.166565134	0.30612369	0.053029698						
1.333	0.039012134	0.048756052	0.067325741	0.173513368	0.303589393	0.052870632						
1.334	0.038804914	0.048790194	0.067226229	0.180570914	0.301129645	0.052720491						
1.335	0.038593997	0.048815524	0.067128771	0.187734411	0.298746322	0.052579391						
1.336	0.038379482	0.048831997	0.067033343	0.195000343	0.2964413	0.052447437						
1.337	0.03816148	0.048839584	0.066939914	0.202365042	0.294216448	0.052324726						
1.338	0.037940112	0.048838269	0.066848442	0.209824687	0.29207363	0.052211344						
1.339	0.037715514	0.048828049	0.066758875	0.217375311	0.2900147	0.052107366						
1.34	0.037487834	0.048808938	0.066671153	0.225012798	0.288041495	0.052012858						
1.341	0.037257233	0.048780964	0.066585204	0.232732889	0.286155834	0.051927874						
1.342	0.037023885	0.048744168	0.066500949	0.240531188	0.284359514	0.051852459						
1.343	0.036787976	0.048698611	0.066418298	0.248403157	0.282654307	0.051786648						
1.344	0.036549706	0.048644365	0.066337151	0.256344128	0.281041955	0.051730464						
1.345	0.036309291	0.048581521	0.0662574	0.264349302	0.279524167	0.051683921						
1.346	0.036066958	0.048510185	0.066178928	0.272413754	0.278102617	0.051647024						
1.347	0.035822948	0.048430481	0.066101609	0.280532439	0.276778936	0.051619764						
1.348	0.035577517	0.048342546	0.066025307	0.288700192	0.275554715	0.051602126						
1.349	0.035330934	0.048246538	0.06594988	0.296911738	0.274431497	0.051594083						
1.35	0.035083483	0.048142628	0.065875177	0.305161693	0.273410775	0.051595596						
1.351	0.034835462	0.048031008	0.065801041	0.313444568	0.272493991	0.051606621						
1.352	0.034587183	0.047911883	0.065727304	0.321754781	0.27168253	0.051627098						
1.353	0.034338971	0.047785477	0.065653797	0.330086652	0.270977718	0.051656963						
1.354	0.034091168	0.047652033	0.06558034	0.338434417	0.27038082	0.051696138						
1.355	0.033844128	0.047511808	0.06550675	0.346792231	0.269893037	0.051744536						
1.356	0.03359822	0.047365078	0.065432839	0.35515417	0.269515503	0.051802062						
1.357	0.033353827	0.047212136	0.065358413	0.363514243	0.269249283	0.051868611						
1.358	0.033111346	0.047053292	0.065283275	0.371866394	0.26909537	0.051944068						
1.359	0.032871188	0.046888873	0.065207224	0.380204509	0.269054683	0.052028309						
1.36	0.032633777	0.046719224	0.065130058	0.388522421	0.269128066	0.052121201						
1.361	0.032399553	0.046544706	0.065051572	0.39681392	0.269316284	0.052222601						
1.362	0.032168967	0.046365697	0.064971559	0.405072756	0.269620022	0.052332359						
1.363	0.031942486	0.046182591	0.064889813	0.413292645	0.270039884	0.052450315						
1.364	0.031720587	0.045995801	0.064806128	0.421467279	0.270576391	0.0525763						
1.365	0.031503763	0.045805753	0.064720297	0.42959033	0.271229978	0.052710137						
1.366	0.031292518	0.045612892	0.064632117	0.437655458	0.272000994	0.052851643						
1.367	0.031087369	0.045417677	0.064541386	0.445656317	0.272889701	0.053000622						
1.368	0.030888845	0.045220585	0.064447907	0.453586562	0.273896273	0.053156876						
1.369	0.030697488	0.045022106	0.064351485	0.461439858	0.275020793	0.053320195						
1.37	0.030513849	0.044822748	0.06425193	0.469209886	0.276263254	0.053490363						
1.371	0.030338492	0.044623031	0.06414906	0.476890347	0.277623557	0.053667158						
1.372	0.030171991	0.044423492	0.064042695	0.484474977	0.279101512	0.053850349						
1.373	0.030014931	0.044224682	0.063932667	0.491957546	0.280696834	0.054039699						
1.374	0.029867907	0.044027165	0.063818812	0.499331872	0.282409147	0.054234966						
1.375	0.02973152	0.04383152	0.063700976	0.506591824	0.28423798	0.054435901						
1.376	0.029606385	0.043638339	0.063579015	0.513731336	0.286182767	0.054642247						
1.377	0.029493121	0.043448227	0.063452795	0.520744404	0.28824285	0.054853745						
1.378	0.029392358	0.043261802	0.063322191	0.527625107	0.290417474	0.055070129						
1.379	0.029304729	0.043079693	0.063187092	0.534367604	0.29270579	0.055291127						
1.38	0.029230877	0.042902542	0.063047398	0.540966147	0.295106854	0.055516465						
1.381	0.029171451	0.042731001	0.06290302	0.547415087	0.297619627	0.055745863						
1.382	0.029127101	0.042565735	0.062753886	0.553708886	0.300242975	0.055979037						
1.383	0.029098486	0.042407418	0.062599935	0.559842117	0.302975671	0.056215699						
1.384	0.029086266	0.042256734	0.062441122	0.56580948	0.305816392	0.05645556						
1.385	0.029091106	0.042114376	0.062277416	0.571605802	0.308763723	0.056698326						
1.386	0.029113671	0.041981046	0.062108801	0.577226053	0.311816153	0.056943702						
1.387	0.029154629	0.041857454	0.061935279	0.582665345	0.31497208	0.057191388						
1.388	0.029214647	0.04174432	0.061756866	0.587918946	0.318229808	0.057441087						
1.389	0.029294394	0.041642367	0.061573594	0.592982283	0.321587553	0.057692496						
1.39	0.029394537	0.041552328	0.061385515	0.597850952	0.325043435	0.057945314						
1.391	0.02951574	0.04147494	0.061192694	0.602520722	0.328595487	0.058199237						
1.392	0.029658665	0.041410945	0.060995216	0.606987545	0.332241652	0.058453965						
1.393	0.02982397	0.041361091	0.060793181	0.611247558	0.335979784	0.058709192						
1.394	0.03001231	0.041326127	0.060586707	0.615297095	0.339807652	0.058964618						
1.395	0.030224331	0.041306808	0.060375931	0.619132687	0.343722935	0.059219942						
1.396	0.030460675	0.04130389	0.060161005	0.622751073	0.347723229	0.059474863						
1.397	0.030721976	0.041318129	0.059942098	0.626149201	0.351806045	0.059729083						
1.398	0.031008859	0.041350285	0.059719399	0.629324236	0.355968812	0.059982307						
1.399	0.03132194	0.041401115	0.05949311	0.632273561	0.360208877	0.06023424						
1.4	0.031661824	0.041471376	0.059263453	0.634994786	0.364523505	0.060484591						
1.401	0.032029104	0.041561824	0.059030664	0.637485751	0.368909883	0.060733073						
1.402	0.032424363	0.041673212	0.058794998	0.639744525	0.373365121	0.060979401						
1.403	0.032848166	0.04180629	0.058556722	0.641769414	0.377886251	0.061223294						
1.404	0.033301068	0.041961801	0.058316122	0.643558963	0.38247023	0.061464477						
1.405	0.033783604	0.042140487	0.058073497	0.645111956	0.387113943	0.061702677						
1.406	0.034296295	0.04234308	0.057829163	0.646427421	0.3918142	0.061937627						
1.407	0.034839643	0.042570308	0.057583447	0.64750463	0.396567742	0.062169066						
1.408	0.035414133	0.042822889	0.057336692	0.648343099	0.401371241	0.062396737						
1.409	0.036020226	0.043101532	0.057089254	0.648942592	0.406221302	0.062620389						
1.41	0.036658365	0.043406938	0.056841501	0.649303118	0.411114462	0.062839779						
1.411	0.03732897	0.043739794	0.056593813	0.649424935	0.416047195	0.063054667						
1.412	0.038032439	0.044100779	0.056346582	0.649308545	0.421015912	0.063264823						
1.413	0.038769143	0.044490555	0.05610021	0.648954698	0.426016966	0.063470022						
1.414	0.039539429	0.044909774	0.055855111	0.648364386	0.431046647	0.063670047						
1.415	0.040343619	0.045359069	0.055611705	0.647538848	0.436101192	0.063864687						
1.416	0.041182004	0.045839062	0.055370424	0.64647956	0.44117678	0.064053743						
1.417	0.042054851	0.046350354	0.055131705	0.645188242	0.446269539	0.064237018						
1.418	0.042962394	0.04689353	0.054895994	0.643666849	0.451375546	0.064414327						
1.419	0.043904837	0.047469157	0.054663742	0.641917569	0.45649083	0.064585494						
1.42	0.044882354	0.04807778	0.054435407	0.639942823	0.461611374	0.064750349						
1.421	0.045895086	0.048719924	0.05421145	0.63774526	0.466733115	0.064908732						
1.422	0.04694314	0.049396094	0.053992337	0.635327751	0.471851951	0.065060493						
